<svg shape-rendering="geometricPrecision" xmlns="http://www.w3.org/2000/svg"  class="qrcode" viewBox="0 0 29 29" preserveAspectRatio="xMidYMid" width="1024" height="1024">
<rect fill="#FFFFFF" width="100%" height="100%"/>
<path class="modules" fill="#08366e" d="M11 2 m0 0h1v1h-1z M14 2 m0 0h1v1h-1z M10 3 m0 0h1v1h-1z M14 3 m0 0h1v1h-1z M15 3 m0 0h1v1h-1z M17 3 m0 0h1v1h-1z M18 3 m0 0h1v1h-1z M11 4 m0 0h1v1h-1z M12 4 m0 0h1v1h-1z M14 4 m0 0h1v1h-1z M16 4 m0 0h1v1h-1z M17 4 m0 0h1v1h-1z M11 5 m0 0h1v1h-1z M15 5 m0 0h1v1h-1z M16 5 m0 0h1v1h-1z M10 6 m0 0h1v1h-1z M11 6 m0 0h1v1h-1z M12 6 m0 0h1v1h-1z M13 6 m0 0h1v1h-1z M16 6 m0 0h1v1h-1z M17 6 m0 0h1v1h-1z M18 6 m0 0h1v1h-1z M11 7 m0 0h1v1h-1z M14 7 m0 0h1v1h-1z M16 7 m0 0h1v1h-1z M17 7 m0 0h1v1h-1z M18 7 m0 0h1v1h-1z M10 8 m0 0h1v1h-1z M12 8 m0 0h1v1h-1z M14 8 m0 0h1v1h-1z M16 8 m0 0h1v1h-1z M18 8 m0 0h1v1h-1z M13 9 m0 0h1v1h-1z M14 9 m0 0h1v1h-1z M15 9 m0 0h1v1h-1z M18 9 m0 0h1v1h-1z M2 10 m0 0h1v1h-1z M4 10 m0 0h1v1h-1z M6 10 m0 0h1v1h-1z M8 10 m0 0h1v1h-1z M11 10 m0 0h1v1h-1z M12 10 m0 0h1v1h-1z M15 10 m0 0h1v1h-1z M18 10 m0 0h1v1h-1z M22 10 m0 0h1v1h-1z M25 10 m0 0h1v1h-1z M2 11 m0 0h1v1h-1z M3 11 m0 0h1v1h-1z M6 11 m0 0h1v1h-1z M9 11 m0 0h1v1h-1z M10 11 m0 0h1v1h-1z M11 11 m0 0h1v1h-1z M14 11 m0 0h1v1h-1z M15 11 m0 0h1v1h-1z M18 11 m0 0h1v1h-1z M20 11 m0 0h1v1h-1z M26 11 m0 0h1v1h-1z M3 12 m0 0h1v1h-1z M4 12 m0 0h1v1h-1z M5 12 m0 0h1v1h-1z M6 12 m0 0h1v1h-1z M8 12 m0 0h1v1h-1z M10 12 m0 0h1v1h-1z M11 12 m0 0h1v1h-1z M15 12 m0 0h1v1h-1z M18 12 m0 0h1v1h-1z M20 12 m0 0h1v1h-1z M21 12 m0 0h1v1h-1z M22 12 m0 0h1v1h-1z M24 12 m0 0h1v1h-1z M25 12 m0 0h1v1h-1z M26 12 m0 0h1v1h-1z M2 13 m0 0h1v1h-1z M3 13 m0 0h1v1h-1z M5 13 m0 0h1v1h-1z M9 13 m0 0h1v1h-1z M14 13 m0 0h1v1h-1z M15 13 m0 0h1v1h-1z M16 13 m0 0h1v1h-1z M19 13 m0 0h1v1h-1z M20 13 m0 0h1v1h-1z M21 13 m0 0h1v1h-1z M25 13 m0 0h1v1h-1z M8 14 m0 0h1v1h-1z M9 14 m0 0h1v1h-1z M10 14 m0 0h1v1h-1z M12 14 m0 0h1v1h-1z M13 14 m0 0h1v1h-1z M14 14 m0 0h1v1h-1z M15 14 m0 0h1v1h-1z M16 14 m0 0h1v1h-1z M19 14 m0 0h1v1h-1z M20 14 m0 0h1v1h-1z M21 14 m0 0h1v1h-1z M23 14 m0 0h1v1h-1z M25 14 m0 0h1v1h-1z M26 14 m0 0h1v1h-1z M4 15 m0 0h1v1h-1z M5 15 m0 0h1v1h-1z M6 15 m0 0h1v1h-1z
M7 15 m0 0h1v1h-1z M12 15 m0 0h1v1h-1z M13 15 m0 0h1v1h-1z M14 15 m0 0h1v1h-1z M15 15 m0 0h1v1h-1z M16 15 m0 0h1v1h-1z M18 15 m0 0h1v1h-1z M20 15 m0 0h1v1h-1z M23 15 m0 0h1v1h-1z M26 15 m0 0h1v1h-1z M2 16 m0 0h1v1h-1z M4 16 m0 0h1v1h-1z M5 16 m0 0h1v1h-1z M6 16 m0 0h1v1h-1z M8 16 m0 0h1v1h-1z M9 16 m0 0h1v1h-1z M12 16 m0 0h1v1h-1z M13 16 m0 0h1v1h-1z M14 16 m0 0h1v1h-1z M19 16 m0 0h1v1h-1z M20 16 m0 0h1v1h-1z M21 16 m0 0h1v1h-1z M24 16 m0 0h1v1h-1z M25 16 m0 0h1v1h-1z M26 16 m0 0h1v1h-1z M3 17 m0 0h1v1h-1z M4 17 m0 0h1v1h-1z M6 17 m0 0h1v1h-1z M11 17 m0 0h1v1h-1z M12 17 m0 0h1v1h-1z M14 17 m0 0h1v1h-1z M15 17 m0 0h1v1h-1z M18 17 m0 0h1v1h-1z M19 17 m0 0h1v1h-1z M22 17 m0 0h1v1h-1z M25 17 m0 0h1v1h-1z M2 18 m0 0h1v1h-1z M4 18 m0 0h1v1h-1z M5 18 m0 0h1v1h-1z M8 18 m0 0h1v1h-1z M9 18 m0 0h1v1h-1z M11 18 m0 0h1v1h-1z M12 18 m0 0h1v1h-1z M13 18 m0 0h1v1h-1z M17 18 m0 0h1v1h-1z M18 18 m0 0h1v1h-1z M19 18 m0 0h1v1h-1z M20 18 m0 0h1v1h-1z M21 18 m0 0h1v1h-1z M22 18 m0 0h1v1h-1z M23 18 m0 0h1v1h-1z M10 19 m0 0h1v1h-1z M11 19 m0 0h1v1h-1z M12 19 m0 0h1v1h-1z M13 19 m0 0h1v1h-1z M15 19 m0 0h1v1h-1z M17 19 m0 0h1v1h-1z M18 19 m0 0h1v1h-1z M22 19 m0 0h1v1h-1z M23 19 m0 0h1v1h-1z M25 19 m0 0h1v1h-1z M26 19 m0 0h1v1h-1z M11 20 m0 0h1v1h-1z M15 20 m0 0h1v1h-1z M17 20 m0 0h1v1h-1z M18 20 m0 0h1v1h-1z M20 20 m0 0h1v1h-1z M22 20 m0 0h1v1h-1z M23 20 m0 0h1v1h-1z M25 20 m0 0h1v1h-1z M26 20 m0 0h1v1h-1z M12 21 m0 0h1v1h-1z M13 21 m0 0h1v1h-1z M15 21 m0 0h1v1h-1z M16 21 m0 0h1v1h-1z M18 21 m0 0h1v1h-1z M22 21 m0 0h1v1h-1z M23 21 m0 0h1v1h-1z M26 21 m0 0h1v1h-1z M10 22 m0 0h1v1h-1z M14 22 m0 0h1v1h-1z M18 22 m0 0h1v1h-1z M19 22 m0 0h1v1h-1z M20 22 m0 0h1v1h-1z M21 22 m0 0h1v1h-1z M22 22 m0 0h1v1h-1z M23 22 m0 0h1v1h-1z M25 22 m0 0h1v1h-1z M26 22 m0 0h1v1h-1z M11 23 m0 0h1v1h-1z M13 23 m0 0h1v1h-1z M14 23 m0 0h1v1h-1z M16 23 m0 0h1v1h-1z M17 23 m0 0h1v1h-1z M18 23 m0 0h1v1h-1z M21 23 m0 0h1v1h-1z M22 23 m0 0h1v1h-1z M23 23 m0 0h1v1h-1z M24 23 m0 0h1v1h-1z M10 24 m0 0h1v1h-1z
M11 24 m0 0h1v1h-1z M12 24 m0 0h1v1h-1z M13 24 m0 0h1v1h-1z M14 24 m0 0h1v1h-1z M15 24 m0 0h1v1h-1z M16 24 m0 0h1v1h-1z M17 24 m0 0h1v1h-1z M22 24 m0 0h1v1h-1z M26 24 m0 0h1v1h-1z M14 25 m0 0h1v1h-1z M15 25 m0 0h1v1h-1z M17 25 m0 0h1v1h-1z M18 25 m0 0h1v1h-1z M20 25 m0 0h1v1h-1z M22 25 m0 0h1v1h-1z M23 25 m0 0h1v1h-1z M25 25 m0 0h1v1h-1z M10 26 m0 0h1v1h-1z M12 26 m0 0h1v1h-1z M13 26 m0 0h1v1h-1z M14 26 m0 0h1v1h-1z M16 26 m0 0h1v1h-1z M18 26 m0 0h1v1h-1z M19 26 m0 0h1v1h-1z M21 26 m0 0h1v1h-1z M25 26 m0 0h1v1h-1z M26 26 m0 0h1v1h-1z"/>
<path class="outer" fill="#08366e" d="M2 2 m2.25 7h2.55c1.2 0 2.2-1 2.2-2.2v-2.55c0-1.25-1-2.25-2.25-2.25h-2.55c-1.2 0-2.2 1-2.2 2.2v2.55c0 1.25 1 2.25 2.25 2.25zm3.75-4.6v2.2c0 .75-.65 1.4-1.4 1.4h-2.2c-.8 0-1.4-.6-1.4-1.4v-2.2c0-.75.65-1.4 1.4-1.4h2.2c.8 0 1.4.6 1.4 1.4z"/>
<path class="inner" fill="#08366e" d="M2 2 m5.063 2.868v1.378c0 .408-.409.817-.868.817h-1.327c-.51 0-.868-.358-.868-.868v-1.327c0-.46.408-.868.868-.868h1.378c.459 0 .817.357.817.868z"/>
<path class="outer" fill="#08366e" d="M2 20 m2.25 7h2.55c1.2 0 2.2-1 2.2-2.2v-2.55c0-1.25-1-2.25-2.25-2.25h-2.55c-1.2 0-2.2 1-2.2 2.2v2.55c0 1.25 1 2.25 2.25 2.25zm3.75-4.6v2.2c0 .75-.65 1.4-1.4 1.4h-2.2c-.8 0-1.4-.6-1.4-1.4v-2.2c0-.75.65-1.4 1.4-1.4h2.2c.8 0 1.4.6 1.4 1.4z"/>
<path class="inner" fill="#08366e" d="M2 20 m5.063 2.868v1.378c0 .408-.409.817-.868.817h-1.327c-.51 0-.868-.358-.868-.868v-1.327c0-.46.408-.868.868-.868h1.378c.459 0 .817.357.817.868z"/>
<path class="outer" fill="#08366e" d="M20 2 m2.25 7h2.55c1.2 0 2.2-1 2.2-2.2v-2.55c0-1.25-1-2.25-2.25-2.25h-2.55c-1.2 0-2.2 1-2.2 2.2v2.55c0 1.25 1 2.25 2.25 2.25zm3.75-4.6v2.2c0 .75-.65 1.4-1.4 1.4h-2.2c-.8 0-1.4-.6-1.4-1.4v-2.2c0-.75.65-1.4 1.4-1.4h2.2c.8 0 1.4.6 1.4 1.4z"/>
<path class="inner" fill="#08366e" d="M20 2 m5.063 2.868v1.378c0 .408-.409.817-.868.817h-1.327c-.51 0-.868-.358-.868-.868v-1.327c0-.46.408-.868.868-.868h1.378c.459 0 .817.357.817.868z"/>
</svg>
