<?xml version="1.0" encoding="UTF-8" standalone="no"?>
<svg
   width="247.36"
   height="84.984"
   clip-rule="evenodd"
   fill-rule="evenodd"
   stroke-linejoin="round"
   stroke-miterlimit="2"
   version="1.1"
   viewBox="0 0 247.36 84.984"
   xml:space="preserve"
   id="svg70"
   sodipodi:docname="logo-color-2.svg"
   inkscape:version="1.2.2 (732a01da63, 2022-12-09)"
   xmlns:inkscape="http://www.inkscape.org/namespaces/inkscape"
   xmlns:sodipodi="http://sodipodi.sourceforge.net/DTD/sodipodi-0.dtd"
   xmlns="http://www.w3.org/2000/svg"
   xmlns:svg="http://www.w3.org/2000/svg"><defs
   id="defs74" /><sodipodi:namedview
   id="namedview72"
   pagecolor="#ffffff"
   bordercolor="#666666"
   borderopacity="1.0"
   inkscape:showpageshadow="2"
   inkscape:pageopacity="0.0"
   inkscape:pagecheckerboard="0"
   inkscape:deskcolor="#d1d1d1"
   showgrid="false"
   inkscape:zoom="5.5142303"
   inkscape:cx="138.00657"
   inkscape:cy="42.526334"
   inkscape:window-width="1920"
   inkscape:window-height="991"
   inkscape:window-x="-9"
   inkscape:window-y="-9"
   inkscape:window-maximized="1"
   inkscape:current-layer="svg70" />
    <g
   transform="translate(102.49 30.817)"
   id="g4"
   style="fill:#ffffff">
                <path
   d="m0 21.45c-1.7 0-3.13-0.295-4.29-0.886-1.16-0.589-2.09-1.389-2.79-2.399s-1.21-2.155-1.529-3.436c-0.321-1.279-0.481-2.599-0.481-3.96v-10.769h2.7v10.769c0 1.04 0.105 2.056 0.315 3.045 0.21 0.99 0.555 1.875 1.035 2.656 0.48 0.78 1.13 1.4 1.95 1.86s1.84 0.689 3.06 0.689c1.24 0 2.27-0.234 3.091-0.705 0.819-0.469 1.469-1.099 1.949-1.889s0.825-1.675 1.035-2.656c0.21-0.979 0.315-1.979 0.315-3v-10.769h2.701v10.769c0 1.441-0.166 2.806-0.496 4.096s-0.855 2.425-1.575 3.404c-0.719 0.981-1.655 1.755-2.804 2.326-1.151 0.57-2.546 0.855-4.186 0.855"
   fill-rule="nonzero"
   id="path2"
   style="fill:#ffffff" />
            </g><g
   transform="translate(116.35 30.787)"
   id="g8"
   style="fill:#ffffff">
                <path
   d="m0 21.33v-21.3h2.7v11.777l10.981-11.807h2.909l-8.55 9.403 9.03 11.927h-3.03l-7.71-10.305-3.63 3.785v6.52z"
   fill-rule="nonzero"
   id="path6"
   style="fill:#ffffff" />
            </g><g
   transform="translate(138.61 40.867)"
   id="g12"
   style="fill:#ffffff">
                <path
   d="m0 1.2h6.45c0.739 0 1.385-0.205 1.935-0.615 0.55-0.409 0.979-0.955 1.29-1.635 0.309-0.68 0.465-1.41 0.465-2.19 0-0.8-0.18-1.535-0.54-2.206-0.36-0.669-0.83-1.204-1.41-1.604-0.581-0.4-1.22-0.601-1.92-0.601h-6.27zm-2.7 10.05v-21.3h9.12c0.939 0 1.8 0.194 2.58 0.585 0.78 0.39 1.46 0.91 2.04 1.56s1.03 1.379 1.35 2.19c0.32 0.81 0.48 1.635 0.48 2.475 0 0.98-0.185 1.91-0.555 2.79-0.371 0.88-0.89 1.63-1.56 2.25s-1.455 1.049-2.355 1.29l5.16 8.16h-3.06l-4.86-7.651h-5.64v7.651z"
   fill-rule="nonzero"
   id="path10"
   style="fill:#ffffff" />
            </g><g
   transform="translate(167.01 39.157)"
   id="g16"
   style="fill:#ffffff">
                <path
   d="m0 4.62-3.768-9.84-3.783 9.84zm-4.907-12.96h2.279l8.7 21.3h-2.88l-2.388-6.24h-9.162l-2.4 6.24h-2.88z"
   fill-rule="nonzero"
   id="path14"
   style="fill:#ffffff" />
            </g><g
   transform="translate(-17.004 -25.374)"
   id="g20"
   style="fill:#ffffff">
                <path
   d="m195.6 50.101h2.221v3.06h-2.221zm-2.67 6.09h2.7v21.3h-2.7zm-2.189-6.09h2.22v3.06h-2.22z"
   fill-rule="nonzero"
   id="path18"
   style="fill:#ffffff" />
            </g><g
   transform="translate(193.72 48.486)"
   id="g24"
   style="fill:#ffffff">
                <path
   d="m0-20.219-1.74-0.601 1.74-3.03h2.64zm-7.29 7.529v16.321h-2.7v-21.3h2.28l13.02 16.649v-16.619h2.7v21.27h-2.46z"
   fill-rule="nonzero"
   id="path22"
   style="fill:#ffffff" />
            </g><g
   transform="translate(219.34 47.647)"
   id="g28"
   style="fill:#ffffff">
                <path
   d="m0-12.36c-0.239-0.279-0.56-0.55-0.96-0.81-0.4-0.259-0.85-0.495-1.35-0.705s-1.044-0.38-1.634-0.51c-0.591-0.129-1.205-0.195-1.846-0.195-1.64 0-2.85 0.31-3.63 0.927-0.779 0.618-1.17 1.466-1.17 2.542 0 0.758 0.2 1.355 0.601 1.795 0.399 0.438 1.014 0.798 1.844 1.076 0.831 0.279 1.885 0.568 3.166 0.867 1.479 0.32 2.759 0.709 3.839 1.167s1.911 1.072 2.491 1.839c0.58 0.768 0.87 1.789 0.87 3.066 0 1.016-0.196 1.899-0.585 2.646-0.391 0.748-0.936 1.366-1.636 1.855-0.7 0.488-1.52 0.847-2.46 1.077-0.939 0.228-1.96 0.343-3.06 0.343-1.08 0-2.134-0.115-3.165-0.345-1.03-0.23-2.004-0.565-2.924-1.005s-1.781-0.99-2.58-1.65l1.29-2.28c0.319 0.34 0.734 0.675 1.245 1.005 0.509 0.33 1.09 0.635 1.739 0.915 0.65 0.28 1.355 0.505 2.115 0.675s1.54 0.255 2.34 0.255c1.521 0 2.7-0.274 3.54-0.821 0.841-0.547 1.261-1.348 1.261-2.403 0-0.798-0.236-1.435-0.705-1.914-0.471-0.479-1.166-0.878-2.085-1.197-0.921-0.319-2.04-0.639-3.361-0.958-1.44-0.359-2.65-0.752-3.629-1.182-0.981-0.428-1.715-0.991-2.206-1.69-0.49-0.697-0.735-1.606-0.735-2.722 0-1.356 0.33-2.503 0.99-3.44 0.661-0.938 1.571-1.646 2.731-2.124 1.159-0.48 2.47-0.719 3.93-0.719 0.959 0 1.854 0.1 2.684 0.3s1.606 0.48 2.325 0.841c0.72 0.359 1.38 0.79 1.981 1.29z"
   fill-rule="nonzero"
   id="path26"
   style="fill:#ffffff" />
            </g><g
   transform="translate(225.1 30.787)"
   id="g32"
   style="fill:#ffffff">
                <path
   d="m0 21.33v-21.3h2.7v11.777l10.981-11.807h2.909l-8.55 9.403 9.03 11.927h-3.03l-7.71-10.305-3.63 3.785v6.52z"
   fill-rule="nonzero"
   id="path30"
   style="fill:#ffffff" />
            </g><g
   transform="translate(-17.004 -19.284)"
   id="g36"
   style="fill:#ffffff">
                <rect
   x="261.66"
   y="50.101"
   width="2.7"
   height="21.3"
   id="rect34"
   style="fill:#ffffff" />
            </g><g
   transform="translate(108.64 69.497)"
   id="g40"
   style="fill:#ffffff">
                <path
   d="m0-0.06c0-1.601-0.296-3.02-0.885-4.261-0.591-1.239-1.445-2.209-2.565-2.909s-2.49-1.051-4.111-1.051h-4.679v16.5h4.679c1.64 0 3.02-0.364 4.141-1.094 1.119-0.73 1.97-1.72 2.55-2.97s0.87-2.655 0.87-4.215m-14.94 10.68v-21.3h7.379c2.281 0 4.186 0.475 5.715 1.425 1.531 0.95 2.675 2.23 3.436 3.84 0.76 1.61 1.139 3.395 1.139 5.355 0 2.16-0.419 4.04-1.259 5.64s-2.031 2.839-3.571 3.719c-1.54 0.881-3.359 1.321-5.46 1.321z"
   fill-rule="nonzero"
   id="path38"
   style="fill:#ffffff" />
            </g><g
   transform="translate(116.53 69.467)"
   id="g44"
   style="fill:#ffffff">
                <path
   d="m0-1e-3c0 1.08 0.175 2.126 0.524 3.136 0.35 1.01 0.845 1.904 1.486 2.684 0.639 0.781 1.41 1.401 2.309 1.861 0.901 0.46 1.901 0.689 3 0.689 1.141 0 2.16-0.239 3.061-0.72 0.899-0.48 1.665-1.12 2.295-1.92 0.63-0.799 1.109-1.7 1.439-2.7s0.495-2.009 0.495-3.03c0-1.08-0.174-2.119-0.524-3.119-0.351-1-0.851-1.896-1.5-2.686-0.65-0.79-1.421-1.41-2.311-1.86-0.889-0.449-1.875-0.675-2.955-0.675-1.139 0-2.16 0.236-3.059 0.705-0.901 0.471-1.665 1.106-2.295 1.906-0.63 0.799-1.115 1.695-1.455 2.684-0.341 0.99-0.51 2.006-0.51 3.045m7.29 10.801c-1.5 0-2.86-0.301-4.08-0.901-1.221-0.599-2.275-1.415-3.165-2.445-0.891-1.029-1.575-2.189-2.056-3.479-0.479-1.29-0.719-2.616-0.719-3.976 0-1.42 0.254-2.774 0.764-4.064 0.511-1.29 1.22-2.441 2.131-3.451 0.909-1.009 1.975-1.809 3.194-2.4 1.22-0.589 2.55-0.885 3.991-0.885 1.5 0 2.859 0.311 4.08 0.931 1.219 0.62 2.269 1.45 3.15 2.489 0.879 1.04 1.56 2.2 2.039 3.481 0.481 1.28 0.721 2.589 0.721 3.929 0 1.421-0.251 2.776-0.75 4.066-0.5 1.29-1.205 2.44-2.115 3.449-0.911 1.011-1.976 1.806-3.196 2.386-1.219 0.58-2.55 0.87-3.989 0.87"
   fill-rule="nonzero"
   id="path42"
   style="fill:#ffffff" />
            </g><g
   transform="translate(156.04 58.817)"
   id="g48"
   style="fill:#ffffff">
                <path
   d="m0 21.3v-16.26l-7.02 12.51h-1.65l-7.05-12.51v16.26h-2.7v-21.3h2.851l7.71 13.83 7.739-13.83h2.82v21.3z"
   fill-rule="nonzero"
   id="path46"
   style="fill:#ffffff" />
            </g><g
   transform="translate(27.651 21.835)"
   id="g52">
                <path
   d="m0 54.837v-49.132l-27.651-6.281v38.15c0 9.836 9.909 17.839 22.09 17.839 1.872 0 3.74-0.194 5.561-0.576"
   fill="#0057b7"
   fill-rule="nonzero"
   id="path50" />
            </g><g
   transform="translate(47.553 84.984)"
   id="g56">
                <path
   d="m0-62.975h-17.041v3.139l18.262 3.924v30.962c0 8.935-8.233 16.488-18.262 19.012v5.938h17.041c17.509 0 31.702-14.097 31.702-31.487v-1e-3c0-17.39-14.193-31.487-31.702-31.487"
   fill="#ffd700"
   fill-rule="nonzero"
   id="path54" />
            </g><g
   transform="matrix(.70711 -.70711 -.70711 -.70711 55.544 8.5042)"
   id="g60">
                <path
   d="m-6.013-2.491c4.697 0 8.504 3.807 8.504 8.504s-3.807 8.504-8.504 8.504-8.504-3.807-8.504-8.504 3.807-8.504 8.504-8.504"
   fill="#ffd700"
   fill-rule="nonzero"
   id="path58" />
            </g><g
   transform="translate(20.028 5.6321)"
   id="g64">
                <path
   d="m0 14.173c3.914 0 7.087-3.173 7.087-7.087 0-3.913-3.173-7.086-7.087-7.086s-7.087 3.173-7.087 7.086c0 3.914 3.173 7.087 7.087 7.087"
   fill="#0057b7"
   fill-rule="nonzero"
   id="path62" />
            </g><g
   transform="matrix(0 -1 -1 0 45.47 44.354)"
   id="g68">
                <path
   d="m-15.055-0.443h28.117l3.52 15.498h-48.662c2.312-9.157 9.238-15.498 17.025-15.498"
   fill="#0057b7"
   fill-rule="nonzero"
   id="path66" />
            </g>
</svg>
